<svg width="14" height="8" viewBox="0 0 14 8" fill="none" xmlns="http://www.w3.org/2000/svg">
<path d="M13.6739 1.58282L7.4903 7.78486C7.41669 7.85848 7.33694 7.9105 7.25106 7.94093C7.16517 7.97185 7.07315 7.9873 6.975 7.9873C6.87685 7.9873 6.78483 7.97185 6.69894 7.94093C6.61306 7.9105 6.53331 7.85848 6.4597 7.78486L0.257651 1.58282C0.0858835 1.41105 -2.96842e-07 1.19634 -3.08105e-07 0.93869C-3.19367e-07 0.681038 0.0920181 0.460194 0.276055 0.276157C0.460092 0.0921202 0.674802 0.000102014 0.920184 0.000102003C1.16557 0.000101992 1.38028 0.0921201 1.56431 0.276157L6.975 5.68684L12.3857 0.276157C12.5575 0.104389 12.769 0.0185045 13.0202 0.0185045C13.272 0.0185045 13.4899 0.110523 13.6739 0.29456C13.858 0.478597 13.95 0.693307 13.95 0.93869C13.95 1.18407 13.858 1.39878 13.6739 1.58282Z" fill="white"/>
</svg>
