<svg width="14" height="14" viewBox="0 0 14 14" fill="none" xmlns="http://www.w3.org/2000/svg">
<path d="M0.387911 13.1165C0.0462021 12.7748 0.0541176 12.2129 0.405589 11.8614L5.26702 6.99999L0.405641 2.13861C0.0541695 1.78714 0.0462547 1.2252 0.387962 0.883497L0.882938 0.388522C1.22465 0.0468126 1.78658 0.0547274 2.13805 0.4062L6.99943 5.26758L11.8607 0.406285C12.2122 0.0548137 12.7741 0.0468976 13.1158 0.388607L13.6108 0.883582C13.9525 1.22529 13.9446 1.78722 13.5931 2.1387L8.73184 6.99999L13.5932 11.8613C13.9447 12.2128 13.9526 12.7747 13.6109 13.1164L13.1159 13.6114C12.7742 13.9531 12.2122 13.9452 11.8608 13.5937L6.99943 8.7324L2.138 13.5938C1.78653 13.9453 1.22459 13.9532 0.882886 13.6115L0.387911 13.1165Z" fill="white"/>
</svg>
