<svg width="19" height="14" viewBox="0 0 19 14" fill="none" xmlns="http://www.w3.org/2000/svg">
<path d="M16.6586 1.74922C15.3487 0.693029 13.7498 0.0815642 12.0845 0L11.8602 0.268255C13.343 0.666231 14.7249 1.38603 15.9124 2.37886C14.0556 1.35601 11.9952 0.780997 9.88838 0.697667C7.7816 0.614337 5.68405 1.0249 3.75572 1.89803C3.2319 2.14806 2.88795 2.33331 2.8158 2.36975C4.06571 1.33692 5.51986 0.594653 7.07756 0.194358L6.91843 0C5.25522 0.0826113 3.65849 0.694031 2.35029 1.74922C0.857772 4.76201 0.0540584 8.08311 0 11.4611C0.560589 12.2683 1.30646 12.922 2.17186 13.3644C3.03727 13.8067 3.99563 14.0243 4.96249 13.9978C4.96249 13.9978 5.56835 13.2477 6.0566 12.609C4.91315 12.3145 3.90601 11.6203 3.20917 10.6462C3.44439 10.8132 3.84171 11.044 3.86938 11.0632C5.41427 11.9268 7.12755 12.4272 8.8848 12.5281C10.6421 12.6289 12.3992 12.3277 14.0286 11.6463C14.6862 11.3922 15.3138 11.0632 15.8996 10.6654C15.1731 11.6575 14.1309 12.3582 12.9533 12.6465C13.4415 13.2761 14.0286 13.9978 14.0286 13.9978C14.9963 14.0213 15.9549 13.8025 16.8212 13.3604C17.6876 12.9183 18.4355 12.2664 19 11.4611C18.9533 8.08353 18.1524 4.76176 16.6586 1.75024V1.74922ZM8.1173 8.06384C8.12845 8.29694 8.09439 8.52999 8.01709 8.74952C7.93978 8.96905 7.82078 9.17072 7.66694 9.34288C7.5131 9.51503 7.32748 9.65426 7.1208 9.75251C6.91412 9.85076 6.69048 9.90609 6.46281 9.91531C6.00647 9.88073 5.57979 9.67065 5.26839 9.32724C4.957 8.98384 4.78393 8.53251 4.78393 8.06384C4.78393 7.59518 4.957 7.14385 5.26839 6.80045C5.57979 6.45704 6.00647 6.24696 6.46281 6.21238H6.48949C6.92785 6.23518 7.34098 6.42927 7.6438 6.75469C7.94663 7.0801 8.11609 7.51206 8.1173 7.9616V8.06384ZM12.2555 9.61871C11.8291 9.57883 11.434 9.37236 11.1523 9.04213C10.8705 8.71189 10.7237 8.28324 10.7422 7.84509C10.7608 7.40694 10.9433 6.99293 11.252 6.68893C11.5606 6.38493 11.9716 6.21428 12.3998 6.21238C12.6275 6.2216 12.8511 6.27693 13.0578 6.37518C13.2645 6.47343 13.4501 6.61266 13.6039 6.78481C13.7578 6.95697 13.8768 7.15864 13.9541 7.37817C14.0314 7.5977 14.0655 7.83075 14.0543 8.06384C14.0368 8.28725 13.9762 8.50489 13.8761 8.7042C13.776 8.90351 13.6384 9.08055 13.4712 9.2251C13.3039 9.36965 13.1104 9.47886 12.9018 9.54642C12.6931 9.61397 12.4735 9.63854 12.2555 9.61871Z" fill="white"/>
</svg>
