<svg width="20" height="15" viewBox="0 0 20 15" fill="none" xmlns="http://www.w3.org/2000/svg">
<path d="M17.9514 3.73799C17.9641 3.90183 17.964 4.06672 17.964 4.23056C17.9843 7.06708 16.7838 9.79494 14.6264 11.8144C12.469 13.8339 9.53135 14.9797 6.45927 15H6.29796C4.06487 15.0047 1.87786 14.4136 0 13.2978C0.329046 13.331 0.659894 13.3467 0.990894 13.3446C2.8368 13.3488 4.63042 12.7788 6.0825 11.7265C5.22675 11.7123 4.39719 11.4516 3.70971 10.9808C3.02223 10.5101 2.51118 9.85285 2.24795 9.10089C2.50408 9.13837 2.76291 9.15793 3.02223 9.1594C3.38655 9.15869 3.7493 9.11544 4.10185 9.03068C3.17404 8.85734 2.33972 8.39305 1.74037 7.71653C1.14102 7.04001 0.813533 6.19291 0.813455 5.31888V5.27526C1.38181 5.56806 2.01701 5.73281 2.66736 5.75613C1.79432 5.22129 1.17571 4.39856 0.938163 3.45637C0.700617 2.51417 0.8621 1.52377 1.38956 0.687918C2.41944 1.85903 3.70442 2.81718 5.16117 3.50024C6.61792 4.1833 8.2139 4.57601 9.8456 4.65291C9.77979 4.36786 9.74581 4.07732 9.74421 3.78587C9.74522 3.02647 9.99325 2.28485 10.4561 1.65715C10.919 1.02944 11.5755 0.544584 12.3404 0.265418C13.1052 -0.0137476 13.9433 -0.0743507 14.7459 0.0914636C15.5485 0.257278 16.2787 0.641865 16.8418 1.19538C17.7594 1.03154 18.6393 0.721981 19.4423 0.280461C19.1365 1.15543 18.4953 1.89726 17.6391 2.36668C18.4533 2.28113 19.2491 2.08355 20 1.7805C19.4385 2.53513 18.7432 3.19691 17.9433 3.73799H17.9514Z" fill="white"/>
</svg>
