<svg width="32" height="32" viewBox="0 0 32 32" fill="none" xmlns="http://www.w3.org/2000/svg">
<path d="M11.5625 19.1067C11.5625 20.8267 12.8825 22.2133 14.5225 22.2133H17.8692C19.2958 22.2133 20.4558 21 20.4558 19.5067C20.4558 17.88 19.7492 17.3067 18.6958 16.9333L13.3225 15.0667C12.2692 14.6933 11.5625 14.12 11.5625 12.4933C11.5625 11 12.7225 9.78667 14.1492 9.78667H17.4958C19.1358 9.78667 20.4558 11.1733 20.4558 12.8933M15.9998 8V24" stroke="#19FB80" stroke-width="2" stroke-linecap="round" stroke-linejoin="round"/>
<path d="M19.9998 29.3334H11.9998C5.33317 29.3334 2.6665 26.6667 2.6665 20.0001V12.0001C2.6665 5.33341 5.33317 2.66675 11.9998 2.66675H19.9998C26.6665 2.66675 29.3332 5.33341 29.3332 12.0001V20.0001C29.3332 26.6667 26.6665 29.3334 19.9998 29.3334Z" stroke="#19FB80" stroke-width="2" stroke-linecap="round" stroke-linejoin="round"/>
</svg>
