<svg width="29" height="29" viewBox="0 0 29 29" fill="none" xmlns="http://www.w3.org/2000/svg">
<circle cx="14.5" cy="14.5" r="14.5" fill="#2775CA"/>
<path d="M17.3845 16.0271C17.3845 14.519 16.4803 14.002 14.672 13.7866C13.3804 13.6142 13.1221 13.2695 13.1221 12.6662C13.1221 12.0628 13.5527 11.6751 14.4137 11.6751C15.1887 11.6751 15.6193 11.9337 15.8345 12.58C15.8776 12.7093 16.0068 12.7954 16.1359 12.7954H16.8247C16.997 12.7954 17.1261 12.6662 17.1261 12.4939V12.4507C16.9539 11.5027 16.1789 10.7703 15.1887 10.6841V9.64996C15.1887 9.47757 15.0595 9.3483 14.8443 9.30518H14.1985C14.0262 9.30518 13.8971 9.43444 13.854 9.64996V10.641C12.5624 10.8134 11.7444 11.6751 11.7444 12.7524C11.7444 14.1744 12.6054 14.7345 14.4137 14.95C15.6193 15.1654 16.0068 15.4239 16.0068 16.1134C16.0068 16.8029 15.4039 17.2768 14.586 17.2768C13.4665 17.2768 13.079 16.8028 12.9498 16.1564C12.9069 15.9841 12.7777 15.8979 12.6485 15.8979H11.9165C11.7444 15.8979 11.6152 16.0271 11.6152 16.1995V16.2427C11.7874 17.3198 12.4763 18.0954 13.8971 18.311V19.3451C13.8971 19.5174 14.0262 19.6467 14.2415 19.6898H14.8873C15.0595 19.6898 15.1887 19.5605 15.2318 19.3451V18.311C16.5234 18.0954 17.3845 17.1906 17.3845 16.0271Z" fill="white"/>
<path d="M12.3807 20.5694C9.13954 19.3555 7.47735 15.5839 8.68248 12.2456C9.30579 10.4248 10.6771 9.03755 12.3807 8.38725C12.547 8.30058 12.6301 8.17053 12.6301 7.95369V7.34679C12.6301 7.17334 12.547 7.04328 12.3807 7C12.3392 7 12.2561 7 12.2145 7.04328C8.26691 8.34387 6.10607 12.7226 7.35269 16.8411C8.10066 19.2688 9.88751 21.133 12.2145 21.9133C12.3807 22 12.547 21.9133 12.5885 21.7399C12.6301 21.6966 12.6301 21.6532 12.6301 21.5665V20.9595C12.6301 20.8295 12.5054 20.6561 12.3807 20.5694ZM16.7855 7.04328C16.6193 6.95661 16.453 7.04328 16.4115 7.21673C16.3699 7.26012 16.3699 7.3034 16.3699 7.39018V7.99708C16.3699 8.17053 16.4946 8.34387 16.6193 8.43064C19.8605 9.64445 21.5227 13.4161 20.3175 16.7544C19.6942 18.5752 18.3229 19.9625 16.6193 20.6127C16.453 20.6994 16.3699 20.8295 16.3699 21.0463V21.6532C16.3699 21.8267 16.453 21.9567 16.6193 22C16.6608 22 16.7439 22 16.7855 21.9567C20.7331 20.6561 22.8939 16.2774 21.6473 12.1589C20.8993 9.68784 19.0709 7.82363 16.7855 7.04328Z" fill="white"/>
</svg>
