<svg width="32" height="32" viewBox="0 0 32 32" fill="none" xmlns="http://www.w3.org/2000/svg">
<path d="M24.6668 16.8667V21.8C24.6668 25.96 20.7868 29.3334 16.0002 29.3334C11.2135 29.3334 7.3335 25.96 7.3335 21.8V16.8667C7.3335 21.0267 11.2135 24 16.0002 24C20.7868 24 24.6668 21.0267 24.6668 16.8667Z" stroke="#19FB80" stroke-width="2" stroke-linecap="round" stroke-linejoin="round"/>
<path d="M24.6668 10.2001C24.6668 11.4134 24.3335 12.5334 23.7468 13.4934C22.3202 15.8401 19.3868 17.3334 16.0002 17.3334C12.6135 17.3334 9.68016 15.8401 8.2535 13.4934C7.66683 12.5334 7.3335 11.4134 7.3335 10.2001C7.3335 8.12008 8.30683 6.24008 9.86683 4.88008C11.4402 3.50675 13.6002 2.66675 16.0002 2.66675C18.4002 2.66675 20.5602 3.50675 22.1335 4.86675C23.6935 6.24008 24.6668 8.12008 24.6668 10.2001Z" stroke="#19FB80" stroke-width="2" stroke-linecap="round" stroke-linejoin="round"/>
<path d="M24.6668 10.2001V16.8667C24.6668 21.0267 20.7868 24.0001 16.0002 24.0001C11.2135 24.0001 7.3335 21.0267 7.3335 16.8667V10.2001C7.3335 6.04008 11.2135 2.66675 16.0002 2.66675C18.4002 2.66675 20.5602 3.50675 22.1335 4.86675C23.6935 6.24008 24.6668 8.12008 24.6668 10.2001Z" stroke="#19FB80" stroke-width="2" stroke-linecap="round" stroke-linejoin="round"/>
</svg>
