<svg width="74" height="26" viewBox="0 0 74 26" fill="none" xmlns="http://www.w3.org/2000/svg">
<path d="M11.9337 7.97556H11.7944C10.9302 6.72067 9.34116 5.77252 7.334 5.77252C3.40331 5.74464 0.699219 8.86793 0.699219 13.1625C0.699219 17.5407 3.5427 20.4966 7.30612 20.4966C9.34116 20.4688 10.9302 19.5206 11.7944 18.2378H11.9337V20.6361C11.9337 21.4448 11.432 21.891 10.6235 21.891H4.39358C3.35399 21.891 2.51124 22.7337 2.51124 23.7733C2.51124 24.8129 3.35399 25.6557 4.39358 25.6557H11.432C14.136 25.6557 15.6693 24.1777 15.6693 21.5006V8.0586C15.6693 7.02705 14.8331 6.19082 13.8015 6.19082H13.7185C12.7328 6.19082 11.9337 6.98988 11.9337 7.97556ZM8.22607 16.9272C6.02377 16.9272 4.49052 15.3097 4.49052 13.1346C4.49052 10.9594 6.02377 9.342 8.22607 9.342C10.4005 9.342 11.9337 10.9873 11.9337 13.1346C11.9337 15.1982 10.4562 16.9272 8.22607 16.9272Z" fill="white"/>
<path d="M18.4635 16.0627C18.4635 18.5725 19.9689 20.0783 22.6173 20.0783H23.3833C24.392 20.0783 25.2098 19.2606 25.2098 18.2518C25.2098 17.243 24.3921 16.4252 23.3833 16.4252H23.3421C22.6451 16.4252 22.227 16.0348 22.227 15.3934V1.88171C22.227 0.84247 21.3845 0 20.3453 0C19.306 0 18.4635 0.842472 18.4635 1.88171V16.0627Z" fill="white"/>
<path d="M67.3663 5.77252C65.387 5.77252 63.7701 6.72067 62.9059 7.97556H62.7666C62.7666 6.98988 61.9675 6.19082 60.9818 6.19082H60.8988C59.8672 6.19082 59.031 7.02705 59.031 8.0586V23.7879C59.031 24.8194 59.8672 25.6557 60.8988 25.6557C61.9303 25.6557 62.7666 24.8194 62.7666 23.7879V18.2378H62.9059C63.7701 19.5206 65.3591 20.4688 67.3942 20.4966C71.1576 20.4966 74.0011 17.5407 74.0011 13.1625C74.0011 8.86793 71.297 5.74464 67.3663 5.77252ZM66.4742 16.9272C64.2441 16.9272 62.7666 15.1982 62.7666 13.1346C62.7666 10.9873 64.2998 9.342 66.4742 9.342C68.6765 9.342 70.2098 10.9594 70.2098 13.1346C70.2098 15.3097 68.6765 16.9272 66.4742 16.9272Z" fill="white"/>
</svg>
