<svg width="32" height="32" viewBox="0 0 32 32" fill="none" xmlns="http://www.w3.org/2000/svg">
<path d="M8 13.3334V10.6667C8 6.25341 9.33333 2.66675 16 2.66675C22.6667 2.66675 24 6.25341 24 10.6667V13.3334M16 24.6667C16.8841 24.6667 17.7319 24.3156 18.357 23.6904C18.9821 23.0653 19.3333 22.2175 19.3333 21.3334C19.3333 20.4494 18.9821 19.6015 18.357 18.9764C17.7319 18.3513 16.8841 18.0001 16 18.0001C15.1159 18.0001 14.2681 18.3513 13.643 18.9764C13.0179 19.6015 12.6667 20.4494 12.6667 21.3334C12.6667 22.2175 13.0179 23.0653 13.643 23.6904C14.2681 24.3156 15.1159 24.6667 16 24.6667Z" stroke="#19FB80" stroke-width="2" stroke-linecap="round" stroke-linejoin="round"/>
<path d="M22.667 29.3333H9.33366C4.00033 29.3333 2.66699 27.9999 2.66699 22.6666V19.9999C2.66699 14.6666 4.00033 13.3333 9.33366 13.3333H22.667C28.0003 13.3333 29.3337 14.6666 29.3337 19.9999V22.6666C29.3337 27.9999 28.0003 29.3333 22.667 29.3333Z" stroke="#19FB80" stroke-width="2" stroke-linecap="round" stroke-linejoin="round"/>
</svg>
