<svg width="22" height="22" viewBox="0 0 22 22" fill="none" xmlns="http://www.w3.org/2000/svg">
<circle cx="11" cy="11" r="11" fill="#2D374B"/>
<mask id="mask0_0_2623" style="mask-type:luminance" maskUnits="userSpaceOnUse" x="0" y="0" width="22" height="23">
<path d="M0 0H22V22.2063H0V0Z" fill="white"/>
</mask>
<g mask="url(#mask0_0_2623)">
<path d="M13.1036 10.3151L14.4786 7.96651L18.1757 13.7772V14.8918L18.1581 7.21991C18.154 7.12691 18.1278 7.03626 18.0817 6.95567C18.0355 6.87507 17.9708 6.80691 17.893 6.75697L11.238 2.89355C11.1586 2.85499 11.0717 2.83496 10.9836 2.83496C10.8955 2.83496 10.8086 2.85499 10.7292 2.89355C10.7089 2.90466 10.6891 2.91576 10.6698 2.92908L10.6467 2.94351L4.18971 6.72588L4.16496 6.73699C4.1329 6.75282 4.10234 6.77159 4.07366 6.79305C4.00441 6.84321 3.94708 6.90828 3.9058 6.98354C3.86452 7.0588 3.84032 7.14238 3.83496 7.22824L3.84541 13.4813L7.28841 8.09473C7.55584 7.76001 7.90287 7.49906 8.29717 7.3362C8.69147 7.17333 9.1202 7.11385 9.54341 7.16329L10.5725 7.19105L4.50541 17.0039L5.22041 17.4197L11.3562 7.20048L14.0688 7.18994L7.94841 17.6672L10.4982 19.1476L10.8029 19.3242C10.9344 19.3769 11.0801 19.3797 11.2132 19.3325L17.9617 15.3858L16.6714 16.1407L13.1036 10.3151ZM13.6272 17.9209L11.051 13.841L12.6234 11.1477L16.0065 16.5293L13.6272 17.9209Z" fill="#2D374B"/>
<path d="M11.0518 13.8412L13.628 17.9211L16.0111 16.5334L12.6275 11.1518L11.0518 13.8412ZM18.1743 14.8931V13.7785L14.4777 7.96729L13.1027 10.3164L16.6711 16.1448L17.962 15.3899C18.0243 15.3387 18.0753 15.2749 18.1116 15.2025C18.1479 15.1301 18.1687 15.0508 18.1726 14.9697L18.1743 14.8931Z" fill="#28A0F0"/>
<path d="M2.68317 15.9439L4.50587 17.0036L10.5685 7.18964L9.53892 7.16189C9.11571 7.11249 8.68699 7.172 8.2927 7.33486C7.89842 7.49772 7.55138 7.75865 7.28392 8.09332L3.84092 13.4793L2.68262 15.2762L2.68317 15.9439ZM14.0676 7.1902L11.355 7.20074L5.21977 17.4199L7.36477 18.6661L7.94777 17.6675L14.0676 7.1902Z" fill="white"/>
<path d="M19.3163 7.17627C19.3038 6.89377 19.2234 6.61858 19.0821 6.37441C18.9407 6.13024 18.7427 5.92441 18.505 5.77467L11.7631 1.8613C11.5223 1.74182 11.2576 1.67969 10.9893 1.67969C10.721 1.67969 10.4562 1.74182 10.2154 1.8613C10.1599 1.89016 3.65887 5.69529 3.65887 5.69529C3.37935 5.83075 3.14117 6.03973 2.96937 6.30024C2.79758 6.56076 2.69852 6.86318 2.68262 7.17571V15.28L3.84092 13.4832L3.83102 7.23011C3.83564 7.14384 3.85945 7.05972 3.90068 6.984C3.9419 6.90828 3.99949 6.8429 4.06917 6.7927C4.09942 6.7705 10.7115 2.90708 10.7324 2.89765C10.8118 2.85912 10.8987 2.83911 10.9868 2.83911C11.0749 2.83911 11.1618 2.85912 11.2412 2.89765L17.8962 6.76106C17.9739 6.81095 18.0386 6.87902 18.0848 6.95951C18.1309 7.04001 18.1572 7.13054 18.1613 7.22345V14.9697C18.1596 15.05 18.141 15.1291 18.1067 15.2015C18.0724 15.274 18.0231 15.3382 17.9622 15.3899L16.6719 16.1448L16.0064 16.5345L13.6227 17.9222L11.2137 19.3349C11.0806 19.3821 10.9348 19.3793 10.8034 19.3266L7.94777 17.6697L7.36477 18.6677L9.93162 20.1592L10.1544 20.2858C10.2457 20.3402 10.3155 20.3785 10.3375 20.3874C10.552 20.4828 10.7841 20.5306 11.0184 20.5289C11.2346 20.5289 11.4491 20.4884 11.6504 20.4079L18.659 16.3114C18.8566 16.156 19.0181 15.9589 19.1321 15.7338C19.2462 15.5087 19.31 15.2612 19.319 15.0086L19.3163 7.17627Z" fill="#96BEDC"/>
</g>
</svg>
