<svg width="22" height="22" viewBox="0 0 22 22" fill="none" xmlns="http://www.w3.org/2000/svg">
<circle cx="11" cy="11" r="11" fill="black"/>
<mask id="mask0_0_2625" style="mask-type:luminance" maskUnits="userSpaceOnUse" x="0" y="0" width="22" height="23">
<path d="M0 0H22V22.2063H0V0Z" fill="white"/>
</mask>
<g mask="url(#mask0_0_2625)">
<path d="M16.6302 13.8445L14.7517 15.7964C14.7111 15.8388 14.6619 15.8726 14.6072 15.8958C14.5525 15.9189 14.4934 15.9309 14.4337 15.9309H5.52881C5.48633 15.9309 5.44479 15.9189 5.40926 15.8963C5.37373 15.8738 5.34576 15.8417 5.32878 15.804C5.31179 15.7662 5.30652 15.7245 5.31362 15.6839C5.32071 15.6434 5.33986 15.6057 5.36873 15.5755L7.2451 13.6236C7.28578 13.5812 7.33494 13.5474 7.38965 13.5243C7.44437 13.5011 7.50343 13.4891 7.56317 13.489H16.468C16.5109 13.4882 16.5531 13.4996 16.5892 13.5219C16.6254 13.5443 16.654 13.5764 16.6713 13.6144C16.6887 13.6524 16.694 13.6946 16.6867 13.7355C16.6794 13.7764 16.6597 13.8144 16.6302 13.8445ZM14.7517 9.91305C14.711 9.87085 14.6617 9.83715 14.607 9.81399C14.5524 9.79084 14.4934 9.77879 14.4337 9.77846H5.52881C5.48633 9.7785 5.44479 9.79051 5.40926 9.81305C5.37373 9.83559 5.34576 9.86773 5.32878 9.90544C5.31179 9.94315 5.30652 9.98488 5.31362 10.0254C5.32071 10.066 5.33986 10.1037 5.36873 10.1339L7.2451 12.0868C7.28592 12.129 7.33513 12.1627 7.3898 12.1858C7.44452 12.209 7.50348 12.2211 7.56317 12.2214H16.468C16.5105 12.2211 16.5518 12.209 16.5872 12.1863C16.6226 12.1637 16.6504 12.1316 16.6673 12.0939C16.6841 12.0562 16.6893 12.0146 16.6821 11.9742C16.675 11.9337 16.6559 11.896 16.6271 11.8659L14.7517 9.91305ZM5.52881 8.51078H14.4337C14.4934 8.51073 14.5525 8.49873 14.6072 8.47557C14.6619 8.45241 14.7111 8.41858 14.7517 8.37619L16.6302 6.42434C16.6597 6.39419 16.6794 6.35624 16.6867 6.31532C16.694 6.27439 16.6887 6.23228 16.6713 6.19429C16.654 6.15629 16.6254 6.1241 16.5892 6.10179C16.5531 6.07948 16.5109 6.06803 16.468 6.06889H7.56317C7.50343 6.06895 7.44437 6.08093 7.38965 6.10409C7.33494 6.12724 7.28578 6.16106 7.2451 6.20345L5.36873 8.15534C5.33986 8.1855 5.32071 8.22321 5.31362 8.2638C5.30652 8.3044 5.31179 8.34608 5.32878 8.38379C5.34576 8.42151 5.37373 8.45364 5.40926 8.47619C5.44479 8.49873 5.48633 8.51073 5.52881 8.51078Z" fill="url(#paint0_linear_0_2625)"/>
</g>
<defs>
<linearGradient id="paint0_linear_0_2625" x1="6.27086" y1="16.1662" x2="15.281" y2="5.68384" gradientUnits="userSpaceOnUse">
<stop offset="0.08" stop-color="#9945FF"/>
<stop offset="0.3" stop-color="#8752F3"/>
<stop offset="0.5" stop-color="#5497D5"/>
<stop offset="0.6" stop-color="#43B4CA"/>
<stop offset="0.72" stop-color="#28E0B9"/>
<stop offset="0.97" stop-color="#19FB9B"/>
</linearGradient>
</defs>
</svg>
