<svg width="22" height="22" viewBox="0 0 22 22" fill="none" xmlns="http://www.w3.org/2000/svg">
<circle cx="11" cy="11" r="11" fill="#2775CA"/>
<path d="M13.1882 12.1583C13.1882 11.0142 12.5023 10.6219 11.1305 10.4585C10.1506 10.3277 9.95466 10.0662 9.95466 9.60855C9.95466 9.15086 10.2813 8.85674 10.9345 8.85674C11.5224 8.85674 11.8491 9.05287 12.0124 9.5432C12.045 9.64127 12.143 9.70662 12.241 9.70662H12.7636C12.8942 9.70662 12.9922 9.60855 12.9922 9.47785V9.44513C12.8615 8.72596 12.2736 8.17028 11.5224 8.10493V7.3204C11.5224 7.18962 11.4244 7.09155 11.2612 7.05884H10.7712C10.6406 7.05884 10.5426 7.1569 10.5099 7.3204V8.07221C9.53003 8.20299 8.90951 8.85674 8.90951 9.67398C8.90951 10.7527 9.56272 11.1776 10.9345 11.3411C11.8491 11.5045 12.143 11.7006 12.143 12.2237C12.143 12.7467 11.6857 13.1063 11.0652 13.1063C10.2159 13.1063 9.92197 12.7467 9.82399 12.2563C9.79138 12.1256 9.69339 12.0602 9.59541 12.0602H9.0401C8.90951 12.0602 8.81152 12.1583 8.81152 12.289V12.3218C8.94212 13.1389 9.46473 13.7273 10.5426 13.8908V14.6753C10.5426 14.806 10.6406 14.9041 10.8038 14.9368H11.2938C11.4244 14.9368 11.5224 14.8388 11.5551 14.6753V13.8908C12.535 13.7273 13.1882 13.0409 13.1882 12.1583Z" fill="white"/>
<path d="M9.39249 15.6043C6.93365 14.6835 5.67267 11.8222 6.58691 9.28974C7.05977 7.90843 8.10005 6.85603 9.39249 6.3627C9.51861 6.29695 9.58164 6.19829 9.58164 6.03379V5.57338C9.58164 5.4418 9.51861 5.34314 9.39249 5.3103C9.36095 5.3103 9.29792 5.3103 9.26637 5.34314C6.27165 6.32979 4.63239 9.65156 5.5781 12.7759C6.14553 14.6176 7.50107 16.0319 9.26637 16.6239C9.39249 16.6896 9.51861 16.6239 9.55009 16.4923C9.58164 16.4594 9.58164 16.4265 9.58164 16.3608V15.9003C9.58164 15.8016 9.48706 15.6701 9.39249 15.6043ZM12.734 5.34314C12.6079 5.27739 12.4818 5.34314 12.4503 5.47472C12.4188 5.50763 12.4188 5.54047 12.4188 5.6063V6.06671C12.4188 6.19829 12.5133 6.32979 12.6079 6.39562C15.0668 7.31644 16.3277 10.1777 15.4135 12.7102C14.9406 14.0915 13.9004 15.1439 12.6079 15.6372C12.4818 15.703 12.4188 15.8016 12.4188 15.9661V16.4265C12.4188 16.5581 12.4818 16.6568 12.6079 16.6896C12.6395 16.6896 12.7025 16.6896 12.734 16.6568C15.7288 15.6701 17.368 12.3484 16.4223 9.22399C15.8549 7.34935 14.4678 5.93513 12.734 5.34314Z" fill="white"/>
</svg>
