<svg width="63" height="60" viewBox="0 0 63 60" fill="none" xmlns="http://www.w3.org/2000/svg">
<rect width="62.677" height="59.7025" rx="8" fill="#0F0F0F"/>
<path d="M32.8071 13.1247C32.2198 12.7925 31.4898 13.2132 31.4898 13.8838V39.735C31.4898 40.0725 31.859 40.2826 32.1526 40.1122L35.6099 38.1065C35.8801 37.9497 36.0461 37.6626 36.0461 37.3522V20.8562C36.0461 20.5209 36.4111 20.3105 36.7048 20.4766L37.5811 20.9724C37.856 21.1279 38.0257 21.4176 38.0257 21.7315V36.0382C38.0257 36.3757 38.3949 36.5858 38.6886 36.4154L42.1443 34.4098C42.4144 34.2531 42.5804 33.966 42.5804 33.6556V24.5519C42.5804 24.2166 42.9454 24.0063 43.239 24.1724L43.9998 24.6026C44.2747 24.758 44.4445 25.0478 44.4445 25.3617V34.727C44.4445 35.0393 44.2764 35.3279 44.0037 35.4839L30.9975 42.9264C30.7253 43.0821 30.3901 43.0823 30.1178 42.9268L12.6602 32.9592C12.3666 32.7915 12 33.0017 12 33.3378V36.7736C12 37.4019 12.34 37.9819 12.8906 38.2926L29.6855 47.7713C30.2262 48.0765 30.8891 48.0762 31.4295 47.7705L48.1108 38.3355C48.6606 38.0245 49 37.445 49 36.8172V23.298C49 22.6702 48.6606 22.0906 48.1108 21.7797L32.8071 13.1247Z" fill="#19FB80"/>
<path d="M29.4984 20.6239C29.4984 20.2877 29.1316 20.0774 28.838 20.2453L18.7241 26.0275C18.4303 26.1955 18.4301 26.6161 18.7238 26.7844L22.116 28.7281C22.3883 28.8841 22.7239 28.8843 22.9964 28.7285L24.2845 27.9923C24.5782 27.8244 24.9449 28.0347 24.9449 28.3709V31.9683C24.9449 32.3035 24.5801 32.5139 24.2865 32.348L16.9992 28.2311C16.7241 28.0757 16.5543 27.7858 16.5543 27.4718V25.3402C16.5543 25.0261 16.7242 24.7363 16.9993 24.5808L29.0534 17.7711C29.3285 17.6156 29.4984 17.3257 29.4984 17.0117V13.8751C29.4984 13.2065 28.7722 12.7856 28.185 13.1138L12.897 21.6588C12.3428 21.9686 12 22.5505 12 23.1815V29.5329C12 30.1611 12.3398 30.7409 12.8901 31.0517L28.84 40.0604C29.1336 40.2262 29.4984 40.0159 29.4984 39.6807V20.6239Z" fill="#19FB80"/>
</svg>
