<svg width="22" height="22" viewBox="0 0 22 22" fill="none" xmlns="http://www.w3.org/2000/svg">
<circle cx="11" cy="11" r="11" fill="#F7931A"/>
<path d="M15.149 9.43132C15.3384 8.1559 14.3744 7.47032 13.0562 7.01297L13.4838 5.28531L12.4397 5.02326L12.0234 6.70543C11.7489 6.63647 11.467 6.5715 11.1869 6.50709L11.6062 4.81381L10.5628 4.55176L10.1349 6.27886C9.90774 6.22676 9.68465 6.17528 9.4682 6.12103L9.46941 6.1156L8.02958 5.75344L7.75184 6.8767C7.75184 6.8767 8.52647 7.05555 8.51014 7.06656C8.93294 7.17285 9.0094 7.45477 8.99671 7.67822L8.50959 9.64643C8.5387 9.65388 8.57646 9.66466 8.61813 9.68152C8.5833 9.67281 8.54623 9.6633 8.50777 9.65402L7.825 12.4112C7.77333 12.5406 7.64217 12.7348 7.34657 12.661C7.35704 12.6763 6.58771 12.4703 6.58771 12.4703L6.06934 13.6741L7.42805 14.0153C7.68082 14.0791 7.92852 14.1459 8.17245 14.2088L7.7404 15.9562L8.78328 16.2183L9.21115 14.4894C9.49606 14.5673 9.77254 14.6391 10.0432 14.7069L9.61679 16.4276L10.6609 16.6897L11.0929 14.9455C12.8733 15.2849 14.2121 15.1481 14.7755 13.526C15.2296 12.22 14.7529 11.4668 13.8163 10.9755C14.4985 10.8171 15.0124 10.3651 15.1494 9.43146L15.149 9.43122L15.149 9.43132ZM12.7635 12.8007C12.4408 14.1067 10.2579 13.4007 9.5501 13.2237L10.1234 10.9086C10.8311 11.0866 13.1007 11.4387 12.7635 12.8007H12.7635ZM13.0864 9.41239C12.792 10.6003 10.9751 9.99679 10.3857 9.8488L10.9056 7.74915C11.495 7.89713 13.393 8.17333 13.0865 9.41239H13.0864Z" fill="white"/>
</svg>
