<svg width="22" height="22" viewBox="0 0 22 22" fill="none" xmlns="http://www.w3.org/2000/svg">
<circle cx="11" cy="11" r="11" fill="#0F0F0F"/>
<path d="M11.7097 5.35084C11.5291 5.24286 11.3046 5.37963 11.3046 5.59766V14.0025C11.3046 14.1122 11.4182 14.1805 11.5085 14.1251L12.5717 13.473C12.6548 13.422 12.7059 13.3287 12.7059 13.2278V7.86453C12.7059 7.75551 12.8182 7.68712 12.9085 7.74113L13.178 7.90231C13.2625 7.95286 13.3147 8.04706 13.3147 8.14911V12.8006C13.3147 12.9103 13.4283 12.9786 13.5186 12.9232L14.5814 12.2711C14.6645 12.2202 14.7155 12.1268 14.7155 12.0259V9.0661C14.7155 8.95709 14.8278 8.88871 14.9181 8.94269L15.1521 9.08256C15.2366 9.13311 15.2888 9.22732 15.2888 9.32938V12.3742C15.2888 12.4758 15.2371 12.5696 15.1533 12.6203L11.1532 15.0401C11.0695 15.0907 10.9664 15.0907 10.8827 15.0402L5.51359 11.7995C5.42328 11.745 5.31055 11.8133 5.31055 11.9226V13.0396C5.31055 13.2439 5.41513 13.4325 5.58445 13.5335L10.7497 16.6153C10.916 16.7145 11.1199 16.7144 11.2861 16.615L16.4164 13.5474C16.5855 13.4463 16.6899 13.2579 16.6899 13.0538V8.65841C16.6899 8.4543 16.5855 8.26587 16.4164 8.16478L11.7097 5.35084Z" fill="#19FB80"/>
<path d="M10.6922 7.789C10.6922 7.6797 10.5794 7.61134 10.489 7.66593L7.37855 9.54583C7.28817 9.60046 7.28811 9.73721 7.37844 9.79192L8.4217 10.4239C8.50547 10.4746 8.60867 10.4747 8.69249 10.424L9.08864 10.1846C9.17895 10.1301 9.29174 10.1984 9.29174 10.3077V11.4773C9.29174 11.5863 9.17954 11.6547 9.08923 11.6008L6.84806 10.2623C6.76345 10.2118 6.71121 10.1175 6.71121 10.0154V9.32238C6.71121 9.22028 6.76345 9.12603 6.84806 9.0755L10.5553 6.86148C10.6399 6.81095 10.6922 6.7167 10.6922 6.6146V5.59483C10.6922 5.37744 10.4688 5.24059 10.2882 5.34731L5.58641 8.12549C5.41598 8.22619 5.31055 8.4154 5.31055 8.62053V10.6855C5.31055 10.8898 5.41506 11.0783 5.5843 11.1793L10.4897 14.1083C10.58 14.1622 10.6922 14.0938 10.6922 13.9848V7.789Z" fill="#19FB80"/>
</svg>
