<svg width="203" height="72" viewBox="0 0 203 72" fill="none" xmlns="http://www.w3.org/2000/svg">
<path d="M31.1126 22.0873H30.7265C28.3333 18.612 23.9327 15.9863 18.3742 15.9863C7.48863 15.909 0 24.5586 0 36.4517C0 48.5766 7.87464 56.7628 18.297 56.7628C23.9327 56.6855 28.3333 54.0598 30.7265 50.5073H31.1126V57.1489C31.1126 59.3885 29.7229 60.6242 27.484 60.6242H10.0182C7.25673 60.6242 5.01815 62.8628 5.01815 65.6242V66.05C5.01815 68.8114 7.25673 71.05 10.0182 71.05H29.7229C37.2115 71.05 41.4577 66.9569 41.4577 59.543V22.1447C41.4577 19.3833 39.2191 17.1447 36.4577 17.1447H36.0552C33.3254 17.1447 31.1126 19.3576 31.1126 22.0873ZM20.8446 46.8776C14.7457 46.8776 10.4995 42.3983 10.4995 36.3745C10.4995 30.3507 14.7457 25.8715 20.8446 25.8715C26.8664 25.8715 31.1126 30.4279 31.1126 36.3745C31.1126 42.0894 27.0208 46.8776 20.8446 46.8776Z" fill="#19FB80"/>
<path d="M49.196 44.4835C49.196 51.434 53.3649 55.6044 60.6991 55.6044H62.879C65.6404 55.6044 67.879 53.3658 67.879 50.6044V50.4874C67.879 47.726 65.6404 45.4874 62.879 45.4874H62.7064C60.7764 45.4874 59.6183 44.4062 59.6183 42.63V5C59.6183 2.23858 57.3797 0 54.6183 0H54.196C51.4346 0 49.196 2.23858 49.196 5V44.4835Z" fill="#19FB80"/>
<path d="M184.626 15.9863C179.144 15.9863 174.667 18.612 172.273 22.0873H171.887C171.887 19.3576 169.675 17.1447 166.945 17.1447H166.542C163.781 17.1447 161.542 19.3833 161.542 22.1447V66.05C161.542 68.8114 163.781 71.05 166.542 71.05H166.887C169.649 71.05 171.887 68.8114 171.887 66.05V50.5073H172.273C174.667 54.0598 179.067 56.6855 184.703 56.7628C195.125 56.7628 203 48.5766 203 36.4517C203 24.5586 195.511 15.909 184.626 15.9863ZM182.155 46.8776C175.979 46.8776 171.887 42.0894 171.887 36.3745C171.887 30.4279 176.134 25.8715 182.155 25.8715C188.254 25.8715 192.5 30.3507 192.5 36.3745C192.5 42.3983 188.254 46.8776 182.155 46.8776Z" fill="#19FB80"/>
<path d="M135.647 15.7968C130.265 15.7968 125.061 17.9121 121.359 21.6027L116.634 25.8096C114.74 27.4959 111.883 27.4971 109.988 25.8124L105.44 21.7705C101.575 17.9162 96.4447 15.7927 90.985 15.7927C79.675 15.7927 70.4766 25.0028 70.4766 36.3241C70.4766 47.6454 79.675 56.8554 90.985 56.8554C96.3674 56.8554 101.571 54.7401 105.273 51.0495L109.998 46.8428C111.892 45.1564 114.749 45.1553 116.645 46.8401L121.196 50.8859C125.073 54.7156 130.204 56.8268 135.647 56.8268C146.957 56.8268 156.155 47.6331 156.155 36.3282C156.155 25.0232 146.957 15.7968 135.647 15.7968ZM144.915 36.3282C144.915 41.4181 140.757 45.5628 135.647 45.5628C133.133 45.5628 130.822 44.5808 128.971 42.7192C125.139 39.3162 125.177 33.2964 129.008 29.8922L129.105 29.7981C130.842 28.051 133.165 27.0936 135.647 27.0936C140.757 27.0936 144.915 31.2342 144.915 36.3282ZM97.6245 42.7601L97.5269 42.8542C95.7897 44.5972 93.4667 45.5587 90.9891 45.5587C85.8792 45.5587 81.7214 41.4181 81.7214 36.3241C81.7214 31.2301 85.8792 27.0895 90.9891 27.0895C93.5033 27.0895 95.8141 28.0714 97.6652 29.9331C101.497 33.3358 101.456 39.3572 97.6245 42.7601Z" fill="#19FB80"/>
</svg>
