<svg width="463" height="292" viewBox="0 0 463 292" fill="none" xmlns="http://www.w3.org/2000/svg">
<path d="M230.75 239V48.5M230.75 239H419M230.75 239H44.75M230.75 239L372.5 97.25M230.75 239L89 97.25" stroke="#262D2A" stroke-width="4" stroke-dasharray="4.5 13.5"/>
<rect x="181.25" y="186.5" width="99" height="100.5" rx="27" fill="#19FB80" stroke="#313C36" stroke-width="9"/>
<path d="M234.431 214.164C233.685 213.727 232.757 214.28 232.757 215.162V249.137C232.757 249.581 233.226 249.857 233.599 249.633L237.991 246.997C238.334 246.791 238.545 246.414 238.545 246.006V224.325C238.545 223.885 239.009 223.608 239.382 223.826L240.495 224.478C240.844 224.682 241.06 225.063 241.06 225.476V244.279C241.06 244.722 241.529 244.998 241.902 244.774L246.291 242.139C246.635 241.933 246.845 241.555 246.845 241.147V229.183C246.845 228.742 247.309 228.465 247.682 228.684L248.648 229.249C248.998 229.453 249.213 229.834 249.213 230.247V242.555C249.213 242.966 249 243.345 248.653 243.55L232.132 253.332C231.786 253.537 231.36 253.537 231.015 253.332L208.839 240.232C208.466 240.012 208 240.288 208 240.73V245.245C208 246.071 208.432 246.833 209.131 247.242L230.465 259.699C231.152 260.101 231.994 260.1 232.681 259.698L253.871 247.298C254.569 246.889 255 246.128 255 245.303V227.534C255 226.709 254.569 225.948 253.87 225.539L234.431 214.164Z" fill="#141414"/>
<path d="M230.228 224.02C230.228 223.578 229.762 223.302 229.389 223.522L216.541 231.122C216.168 231.343 216.168 231.895 216.541 232.117L220.85 234.671C221.196 234.876 221.622 234.877 221.968 234.672L223.605 233.704C223.978 233.484 224.444 233.76 224.444 234.202V238.93C224.444 239.37 223.98 239.647 223.607 239.429L214.35 234.018C214.001 233.814 213.785 233.433 213.785 233.02V230.219C213.785 229.806 214.001 229.425 214.35 229.221L229.662 220.271C230.012 220.066 230.228 219.685 230.228 219.273V215.15C230.228 214.271 229.305 213.718 228.559 214.15L209.139 225.38C208.435 225.787 208 226.552 208 227.381V235.729C208 236.555 208.432 237.317 209.131 237.725L229.391 249.565C229.764 249.783 230.228 249.507 230.228 249.066V224.02Z" fill="#141414"/>
<rect x="3.25" y="197.5" width="77" height="78.5" rx="20.5" fill="black" stroke="#313C36" stroke-width="5"/>
<path d="M57.8271 245.865L52.3794 251.604C52.2616 251.729 52.1189 251.829 51.9602 251.897C51.8016 251.965 51.6303 252 51.4572 252H25.633C25.5098 252 25.3893 251.965 25.2863 251.898C25.1832 251.832 25.1021 251.738 25.0529 251.627C25.0036 251.516 24.9883 251.393 25.0089 251.274C25.0295 251.155 25.085 251.044 25.1687 250.955L30.6102 245.215C30.7282 245.091 30.8707 244.991 31.0294 244.923C31.1881 244.855 31.3594 244.82 31.5326 244.82H57.3567C57.4809 244.817 57.6034 244.851 57.7082 244.916C57.813 244.982 57.896 245.076 57.9461 245.188C57.9965 245.3 58.012 245.424 57.9907 245.544C57.9695 245.665 57.9125 245.776 57.8271 245.865ZM52.3794 234.304C52.2612 234.18 52.1184 234.081 51.9598 234.013C51.8013 233.945 51.6301 233.909 51.4572 233.908H25.633C25.5098 233.908 25.3893 233.944 25.2863 234.01C25.1832 234.076 25.1021 234.171 25.0529 234.282C25.0036 234.393 24.9883 234.515 25.0089 234.635C25.0295 234.754 25.085 234.865 25.1687 234.953L30.6102 240.696C30.7286 240.82 30.8713 240.919 31.0298 240.987C31.1885 241.055 31.3595 241.091 31.5326 241.092H57.3567C57.4798 241.091 57.5997 241.055 57.7024 240.989C57.8051 240.922 57.8855 240.828 57.9345 240.717C57.9833 240.606 57.9984 240.484 57.9775 240.365C57.9568 240.246 57.9015 240.135 57.8179 240.047L52.3794 234.304ZM25.633 230.181H51.4572C51.6303 230.181 51.8016 230.145 51.9602 230.077C52.1189 230.009 52.2616 229.91 52.3794 229.785L57.8271 224.045C57.9125 223.957 57.9695 223.845 57.9907 223.725C58.012 223.604 57.9965 223.481 57.9461 223.369C57.896 223.257 57.813 223.162 57.7082 223.097C57.6034 223.031 57.4809 222.998 57.3567 223H31.5326C31.3594 223 31.1881 223.036 31.0294 223.104C30.8707 223.172 30.7282 223.271 30.6102 223.396L25.1687 229.135C25.085 229.224 25.0295 229.335 25.0089 229.454C24.9883 229.574 25.0036 229.696 25.0529 229.807C25.1021 229.918 25.1832 230.013 25.2863 230.079C25.3893 230.145 25.5098 230.181 25.633 230.181Z" fill="url(#paint0_linear_0_2451)"/>
<rect x="382.75" y="197.5" width="77" height="78.5" rx="20.5" fill="#191B1A" stroke="#313C36" stroke-width="5"/>
<rect x="342.25" y="50.5" width="77" height="78.5" rx="20.5" fill="#191B1A" stroke="#313C36" stroke-width="5"/>
<rect x="43.75" y="50.5" width="77" height="78.5" rx="20.5" fill="#F7931A" stroke="#313C36" stroke-width="5"/>
<path d="M96.9216 86.0804C97.5457 81.8773 94.3689 79.618 90.0248 78.1108L91.434 72.4174L87.9933 71.5538L86.6214 77.0973C85.7168 76.8701 84.7879 76.656 83.8647 76.4437L85.2465 70.8636L81.8079 70L80.3978 75.6916C79.6493 75.5199 78.9141 75.3502 78.2008 75.1715L78.2048 75.1536L73.4599 73.9601L72.5446 77.6617C72.5446 77.6617 75.0974 78.2511 75.0436 78.2874C76.4369 78.6377 76.6889 79.5667 76.647 80.3031L75.0417 86.7893C75.1377 86.8138 75.2621 86.8493 75.3995 86.9049C75.2847 86.8762 75.1625 86.8448 75.0358 86.8143L72.7857 95.9004C72.6154 96.3268 72.1832 96.9667 71.2091 96.7237C71.2436 96.7741 68.7083 96.0951 68.7083 96.0951L67 100.062L71.4776 101.187C72.3106 101.397 73.1269 101.617 73.9307 101.824L72.5069 107.583L75.9437 108.447L77.3537 102.749C78.2926 103.006 79.2038 103.242 80.0957 103.466L78.6905 109.136L82.1314 110L83.5551 104.252C89.4223 105.371 93.834 104.92 95.6909 99.5742C97.1872 95.2704 95.6164 92.788 92.5297 91.1693C94.7779 90.647 96.4713 89.1576 96.9228 86.0808L96.9218 86.0801L96.9216 86.0804ZM89.0603 97.1841C87.9969 101.488 80.8031 99.1613 78.4707 98.578L80.3601 90.9486C82.6923 91.5351 90.1716 92.6957 89.0604 97.1841H89.0603ZM90.1244 86.018C89.1544 89.9327 83.1668 87.9439 81.2245 87.4562L82.9376 80.5368C84.8799 81.0245 91.1349 81.9347 90.1247 86.018H90.1244Z" fill="white"/>
<rect x="192.25" y="2.5" width="77" height="78.5" rx="20.5" fill="#F4F6F8" stroke="#313C36" stroke-width="5"/>
<path opacity="0.8" d="M230.926 18.6426V36.1461L245.989 42.7568L230.926 18.6426Z" fill="#454A75"/>
<path opacity="0.5" d="M230.929 18.6426L215.863 42.7568L230.929 36.1461V18.6426Z" fill="#454A75"/>
<path opacity="0.8" d="M230.926 54.0993V65.9925L245.999 45.5112L230.926 54.0993Z" fill="#454A75"/>
<path opacity="0.5" d="M230.929 65.9925V54.0972L215.863 45.5112L230.929 65.9925Z" fill="#454A75"/>
<path d="M230.926 51.3486L245.989 42.7587L230.926 36.1519V51.3486Z" fill="#454A75"/>
<path opacity="0.8" d="M215.863 42.7587L230.929 51.3486V36.1519L215.863 42.7587Z" fill="#454A75"/>
<path d="M380.609 77C383.177 77 385.229 77.672 386.765 79.016C388.325 80.36 389.105 82.256 389.105 84.704C389.105 86.96 388.361 88.724 386.873 89.996C385.409 91.244 383.465 91.88 381.041 91.904L380.861 94.604H375.461L375.281 87.908H377.441C379.289 87.908 380.693 87.68 381.653 87.224C382.637 86.768 383.129 85.94 383.129 84.74C383.129 83.9 382.901 83.24 382.445 82.76C381.989 82.28 381.353 82.04 380.537 82.04C379.673 82.04 379.001 82.292 378.521 82.796C378.041 83.276 377.801 83.936 377.801 84.776H372.005C371.957 83.312 372.257 81.992 372.905 80.816C373.577 79.64 374.561 78.716 375.857 78.044C377.177 77.348 378.761 77 380.609 77ZM378.233 103.964C377.153 103.964 376.265 103.652 375.569 103.028C374.897 102.38 374.561 101.588 374.561 100.652C374.561 99.692 374.897 98.888 375.569 98.24C376.265 97.592 377.153 97.268 378.233 97.268C379.289 97.268 380.153 97.592 380.825 98.24C381.521 98.888 381.869 99.692 381.869 100.652C381.869 101.588 381.521 102.38 380.825 103.028C380.153 103.652 379.289 103.964 378.233 103.964Z" fill="white"/>
<path d="M420.609 224C423.177 224 425.229 224.672 426.765 226.016C428.325 227.36 429.105 229.256 429.105 231.704C429.105 233.96 428.361 235.724 426.873 236.996C425.409 238.244 423.465 238.88 421.041 238.904L420.861 241.604H415.461L415.281 234.908H417.441C419.289 234.908 420.693 234.68 421.653 234.224C422.637 233.768 423.129 232.94 423.129 231.74C423.129 230.9 422.901 230.24 422.445 229.76C421.989 229.28 421.353 229.04 420.537 229.04C419.673 229.04 419.001 229.292 418.521 229.796C418.041 230.276 417.801 230.936 417.801 231.776H412.005C411.957 230.312 412.257 228.992 412.905 227.816C413.577 226.64 414.561 225.716 415.857 225.044C417.177 224.348 418.761 224 420.609 224ZM418.233 250.964C417.153 250.964 416.265 250.652 415.569 250.028C414.897 249.38 414.561 248.588 414.561 247.652C414.561 246.692 414.897 245.888 415.569 245.24C416.265 244.592 417.153 244.268 418.233 244.268C419.289 244.268 420.153 244.592 420.825 245.24C421.521 245.888 421.869 246.692 421.869 247.652C421.869 248.588 421.521 249.38 420.825 250.028C420.153 250.652 419.289 250.964 418.233 250.964Z" fill="white"/>
<defs>
<linearGradient id="paint0_linear_0_2451" x1="27.7849" y1="252.692" x2="54.3327" y2="222.232" gradientUnits="userSpaceOnUse">
<stop offset="0.08" stop-color="#9945FF"/>
<stop offset="0.3" stop-color="#8752F3"/>
<stop offset="0.5" stop-color="#5497D5"/>
<stop offset="0.6" stop-color="#43B4CA"/>
<stop offset="0.72" stop-color="#28E0B9"/>
<stop offset="0.97" stop-color="#19FB9B"/>
</linearGradient>
</defs>
</svg>
