<svg width="55" height="25" viewBox="0 0 55 25" fill="none" xmlns="http://www.w3.org/2000/svg">
<path d="M39.7023 0.670933C37.5955 0.2293 36.1776 0.22229 36.0146 0.22229L34.6863 0.227594C34.1657 0.229673 33.7013 0.555376 33.522 1.04418L29.3929 12.3006L25.466 23.0059C25.1678 23.8188 25.7695 24.6804 26.6353 24.6804H46.1188C46.837 24.6804 47.4116 24.0728 47.2995 23.3634C46.7631 19.9692 45.0013 16.9813 42.4801 14.869C41.8613 14.3506 40.9465 14.6542 40.6736 15.4139L39.6111 18.3713H33.8868L36.2758 11.8555L38.1319 6.79596C38.698 6.89761 39.2553 7.02554 39.8039 7.17977C42.3893 7.93242 45.876 9.55361 48.8911 13.0561C49.3377 13.5748 50.1117 13.6866 50.6592 13.2758L53.7281 10.9733C54.2757 10.5625 54.3914 9.7844 53.9578 9.25472C50.3096 4.79857 45.2808 1.78815 39.7023 0.670933Z" fill="#19FB80"/>
<path d="M14.5204 24.2313C16.6271 24.6729 18.045 24.6799 18.208 24.6799L19.5363 24.6746C20.057 24.6725 20.5214 24.3468 20.7007 23.858L24.8297 12.6016L28.7567 1.89633C29.0549 1.08346 28.4532 0.221863 27.5874 0.221863L8.10386 0.221861C7.38566 0.221861 6.81105 0.829397 6.92315 1.53879C7.45953 4.93301 9.22133 7.92089 11.7426 10.0332C12.3614 10.5517 13.2762 10.2481 13.5491 9.48833L14.6115 6.53091L20.3358 6.53091L17.9469 13.0468L16.0908 18.1063C15.5247 18.0046 14.9673 17.8767 14.4187 17.7225C11.8333 16.9698 8.34669 15.3486 5.33154 11.8461C4.88496 11.3274 4.11095 11.2157 3.56342 11.6265L0.49455 13.9289C-0.0530272 14.3398 -0.168779 15.1178 0.264872 15.6475C3.91308 20.1037 8.94188 23.1141 14.5204 24.2313Z" fill="#19FB80"/>
</svg>
