<svg width="63" height="61" viewBox="0 0 63 61" fill="none" xmlns="http://www.w3.org/2000/svg">
<rect y="0.893555" width="62.677" height="59.7025" rx="8" fill="#0F0F0F"/>
<path d="M34.7248 13.8936C35.5195 13.8936 36.1404 14.5719 36.0615 15.3537L35.7797 18.1436L42.6263 18.1436C43.4509 18.1436 44.1128 18.722 43.9839 19.3933C43.368 22.6156 41.343 25.452 38.4485 27.4593C37.7367 27.9514 36.6872 27.6624 36.375 26.9428L35.1543 24.1337L31.212 24.1337L39.4592 42.7169C39.8004 43.4881 39.1091 44.3076 38.1176 44.3076H31.3578L31.0798 46.716C31.0024 47.3869 30.4281 47.8936 29.7452 47.8936H26.2964C25.4941 47.8936 24.8708 47.2029 24.9617 46.4148L25.205 44.3076H18.3737C17.5491 44.3076 16.8872 43.7292 17.0161 43.0579H17.0166C17.6325 39.8355 19.6575 36.9992 22.552 34.9919C23.2638 34.4998 24.3133 34.7888 24.6255 35.5084L25.8462 38.3175H29.7885L21.5413 19.7343C21.2001 18.9631 21.8914 18.1436 22.8829 18.1436L29.6269 18.1436L29.9353 15.0897C30.0039 14.4107 30.5818 13.8936 31.272 13.8936H34.7248Z" fill="#19FB80"/>
</svg>
