<svg width="22" height="22" viewBox="0 0 22 22" fill="none" xmlns="http://www.w3.org/2000/svg">
<circle cx="11" cy="11" r="11" fill="#0F0F0F"/>
<path opacity="0.8" d="M11.0612 12.1113C8.97699 12.1113 7.28125 10.4159 7.28125 8.33172C7.28125 6.24749 8.97699 4.55176 11.0612 4.55176C13.1454 4.55176 14.8412 6.24749 14.8412 8.33172C14.8412 10.4159 13.1454 12.1117 11.0612 12.1117V12.1113ZM11.0612 6.83286C10.2348 6.83286 9.56235 7.50526 9.56235 8.33172C9.56235 9.15818 10.2348 9.83058 11.0612 9.83058C11.8877 9.83058 12.5601 9.15818 12.5601 8.33172C12.5601 7.50526 11.8877 6.83286 11.0612 6.83286Z" fill="white"/>
<path opacity="0.8" d="M11.0612 17.448C8.97699 17.448 7.28125 15.7532 7.28125 13.6701V8.31937C7.28125 7.68978 7.79187 7.17944 8.4218 7.17944C9.05174 7.17944 9.56235 7.68978 9.56235 8.31937V13.6701C9.56235 14.4961 10.2348 15.1682 11.0612 15.1682C11.8877 15.1682 12.5601 14.4961 12.5601 13.6701V8.31937C12.5601 7.68978 13.0707 7.17944 13.7006 7.17944C14.3306 7.17944 14.8412 7.68978 14.8412 8.31937V13.6701C14.8412 15.7532 13.1454 17.448 11.0612 17.448Z" fill="white"/>
</svg>
