<svg width="22" height="22" viewBox="0 0 22 22" fill="none" xmlns="http://www.w3.org/2000/svg">
<circle cx="11" cy="11" r="11" fill="#0F0F0F"/>
<path d="M12.5426 4.55176C12.8328 4.55176 13.0596 4.79391 13.0308 5.07301L12.9279 6.069L15.4287 6.069C15.7299 6.069 15.9716 6.27549 15.9245 6.51515C15.6996 7.66552 14.9599 8.67809 13.9027 9.3947C13.6427 9.57039 13.2594 9.46721 13.1453 9.21031L12.6994 8.20747L11.2595 8.20747L14.2719 14.8416C14.3965 15.1169 14.144 15.4095 13.7818 15.4095H11.3127L11.2112 16.2693C11.1829 16.5088 10.9731 16.6897 10.7237 16.6897H9.46396C9.17095 16.6897 8.94325 16.4431 8.97648 16.1618L9.06533 15.4095H6.57014C6.26892 15.4095 6.02717 15.203 6.07424 14.9634H6.07443C6.29938 13.813 7.03903 12.8004 8.09631 12.0838C8.35629 11.9081 8.73962 12.0113 8.85365 12.2682L9.29955 13.271H10.7395L7.72711 6.63689C7.6025 6.36157 7.85501 6.069 8.21716 6.069L10.6805 6.069L10.7931 4.97878C10.8182 4.73637 11.0293 4.55176 11.2814 4.55176H12.5426Z" fill="#19FB80"/>
</svg>
