<svg width="29" height="29" viewBox="0 0 29 29" fill="none" xmlns="http://www.w3.org/2000/svg">
<circle cx="14.5" cy="14.5" r="14.5" fill="url(#paint0_linear_83_886)"/>
<path d="M8.0368 17.7876L7.92348 17.57H9.82301L9.86975 17.636C10.5636 18.6549 11.5754 19.4158 12.7467 19.8002C13.918 20.1846 15.1833 20.1709 16.346 19.7613C17.5087 19.3516 18.5031 18.569 19.1748 17.5354C19.8464 16.5017 20.1574 15.2749 20.0594 14.046L16.6683 14.0402L17.6584 16.8404L16.4459 18.5063L14.2722 12.3377L21.4277 12.3515L21.4589 12.4602C21.5406 12.7321 21.6043 13.009 21.6494 13.2892C21.7181 13.6896 21.7514 14.0952 21.75 14.5015C21.7476 16.2137 21.1405 17.8701 20.0353 19.1779C18.9301 20.4857 17.3986 21.3609 15.7107 21.6488C15.3039 21.7147 14.8919 21.7485 14.4798 21.75C13.1442 21.751 11.8346 21.381 10.697 20.6814C9.55935 19.9817 8.63849 18.9799 8.0368 17.7876ZM9.25641 16.6297H7.55802L7.52898 16.5209C7.45162 16.2526 7.39173 15.9796 7.3498 15.7036C7.06378 13.9966 7.39721 12.2436 8.29035 10.761C9.1835 9.27849 10.5777 8.16411 12.2204 7.61908C13.8632 7.07406 15.6461 7.1343 17.2483 7.78893C18.8505 8.44356 20.1664 9.64943 20.9574 11.1889L21.07 11.4065H19.1592L19.1124 11.3405C18.4172 10.3235 17.4056 9.56452 16.2348 9.1814C15.064 8.79828 13.7995 8.81246 12.6376 9.22171C11.4757 9.63096 10.4811 10.4124 9.80884 11.4447C9.13661 12.477 8.8244 13.7023 8.91999 14.9305L12.3253 14.9363L11.3351 12.136L12.5533 10.4701L14.7206 16.6388L9.25641 16.6297Z" fill="white"/>
<defs>
<linearGradient id="paint0_linear_83_886" x1="23.2" y1="2.523" x2="6.525" y2="26.39" gradientUnits="userSpaceOnUse">
<stop stop-color="#03D1CF" stop-opacity="0.988"/>
<stop offset="1" stop-color="#4E09F8"/>
</linearGradient>
</defs>
</svg>
