<svg width="18" height="14" viewBox="0 0 18 14" fill="none" xmlns="http://www.w3.org/2000/svg">
<path d="M0.9 0C0.402944 0 0 0.391751 0 0.875V1.575C0 2.05825 0.402944 2.45 0.9 2.45H17.1C17.5971 2.45 18 2.05825 18 1.575V0.874999C18 0.39175 17.5971 0 17.1 0H0.9ZM0.9 5.775C0.402944 5.775 0 6.16675 0 6.65V7.35C0 7.83325 0.402944 8.225 0.9 8.225H17.1C17.5971 8.225 18 7.83325 18 7.35V6.65C18 6.16675 17.5971 5.775 17.1 5.775H0.9ZM0.9 11.55C0.402944 11.55 0 11.9418 0 12.425V13.125C0 13.6082 0.402944 14 0.9 14H17.1C17.5971 14 18 13.6082 18 13.125V12.425C18 11.9418 17.5971 11.55 17.1 11.55H0.9Z" fill="white"/>
</svg>
