<svg width="20" height="20" viewBox="0 0 20 20" fill="none" xmlns="http://www.w3.org/2000/svg">
<path d="M7.6 18H12.4C16.4 18 18 16.4 18 12.4V7.6C18 3.6 16.4 2 12.4 2H7.6C3.6 2 2 3.6 2 7.6V12.4C2 16.4 3.6 18 7.6 18Z" stroke="#B1B1B1" stroke-width="1.5" stroke-linecap="round" stroke-linejoin="round"/>
<path d="M11.8836 9.12913C11.8036 9.68113 11.4836 10.1691 11.0036 10.4651V12.0491C11.0036 12.6011 10.5556 13.0491 10.0036 13.0491C9.45161 13.0491 9.00361 12.6011 9.00361 12.0491V10.4651C8.52361 10.1691 8.20361 9.68113 8.12361 9.12913C8.10761 9.03313 8.09961 8.94513 8.09961 8.84913C8.09961 7.80113 8.95561 6.95312 10.0116 6.95312C10.1796 6.95312 10.3556 6.97713 10.5156 7.02513C11.1636 7.20113 11.6676 7.70512 11.8436 8.35312C11.9156 8.60912 11.9236 8.87313 11.8836 9.12913V9.12913Z" stroke="#B1B1B1" stroke-width="1.5"/>
<path d="M17.9989 9.12695H11.8789" stroke="#B1B1B1" stroke-width="1.5"/>
<path d="M8.12 9.12695H2" stroke="#B1B1B1" stroke-width="1.5"/>
</svg>
