<svg width="20" height="20" viewBox="0 0 20 20" fill="none" xmlns="http://www.w3.org/2000/svg">
<path d="M15.0003 10.5093V13.4122C15.0003 15.8601 12.7172 17.8451 9.90055 17.8451C7.08391 17.8451 4.80078 15.8601 4.80078 13.4122V10.5093C4.80078 12.9572 7.08391 14.7068 9.90055 14.7068C12.7172 14.7068 15.0003 12.9572 15.0003 10.5093Z" stroke="#B1B1B1" stroke-width="1.5" stroke-linecap="round" stroke-linejoin="round"/>
<path d="M15.0003 6.5878C15.0003 7.27039 14.812 7.94513 14.459 8.52572C13.4312 10.0164 11.7051 10.8716 9.90055 10.7853C8.09602 10.8716 6.36994 10.0164 5.34214 8.52572C4.98908 7.94513 4.80078 7.27039 4.80078 6.5878C4.81647 5.37955 5.36568 4.23406 6.29148 3.45733C7.29575 2.60214 8.58246 2.13924 9.90055 2.15493C11.2186 2.13924 12.4975 2.60214 13.5096 3.44948C14.4354 4.22622 14.9846 5.37171 15.0003 6.5878Z" stroke="#B1B1B1" stroke-width="1.5" stroke-linecap="round" stroke-linejoin="round"/>
<path d="M15.0003 6.5878V10.5107C15.0003 12.9586 12.7172 14.7082 9.90055 14.7082C7.08391 14.7082 4.80078 12.9586 4.80078 10.5107V6.5878C4.80078 4.13991 7.08391 2.15493 9.90055 2.15493C11.2186 2.13924 12.4975 2.60214 13.5096 3.44948C14.4354 4.22622 14.9846 5.37171 15.0003 6.5878Z" stroke="#B1B1B1" stroke-width="1.5" stroke-linecap="round" stroke-linejoin="round"/>
</svg>
