<svg width="37" height="35" viewBox="0 0 37 35" fill="none" xmlns="http://www.w3.org/2000/svg">
<rect width="37" height="35" rx="8" fill="url(#paint0_linear_0_84)"/>
<path d="M10.9641 21.1488L10.8303 20.8937H13.073L13.1282 20.9711C13.9474 22.1658 15.1419 23.0579 16.5248 23.5086C17.9077 23.9593 19.4017 23.9432 20.7744 23.4629C22.1472 22.9826 23.3212 22.0651 24.1142 20.8531C24.9072 19.6411 25.2744 18.2027 25.1586 16.7619L21.1549 16.7551L22.3239 20.0383L20.8923 21.9915L18.326 14.7589L26.7742 14.7751L26.8109 14.9026C26.9074 15.2213 26.9827 15.546 27.0359 15.8746C27.117 16.344 27.1563 16.8196 27.1546 17.2959C27.1518 19.3035 26.435 21.2455 25.1302 22.7789C23.8253 24.3123 22.0171 25.3385 20.0243 25.676C19.544 25.7533 19.0576 25.793 18.571 25.7947C16.9942 25.7958 15.448 25.362 14.1049 24.5417C12.7617 23.7214 11.6745 22.5468 10.9641 21.1488ZM12.404 19.7912H10.3988L10.3645 19.6637C10.2732 19.3491 10.2025 19.029 10.153 18.7053C9.81529 16.7039 10.209 14.6486 11.2635 12.9103C12.318 11.1721 13.964 9.86548 15.9035 9.22644C17.843 8.58741 19.9481 8.65805 21.8397 9.42559C23.7314 10.1931 25.2849 11.607 26.2189 13.4119L26.3519 13.6671H24.0958L24.0406 13.5897C23.2198 12.3973 22.0254 11.5074 20.6431 11.0582C19.2608 10.609 17.7679 10.6257 16.3961 11.1055C15.0243 11.5853 13.85 12.5016 13.0563 13.7119C12.2626 14.9222 11.894 16.3589 12.0068 17.7989L16.0273 17.8057L14.8583 14.5225L16.2966 12.5693L18.8553 19.8019L12.404 19.7912Z" fill="white"/>
<defs>
<linearGradient id="paint0_linear_0_84" x1="29.6" y1="3.045" x2="9.88253" y2="32.8794" gradientUnits="userSpaceOnUse">
<stop stop-color="#03D1CF" stop-opacity="0.988"/>
<stop offset="1" stop-color="#4E09F8"/>
</linearGradient>
</defs>
</svg>
