<svg width="20" height="20" viewBox="0 0 20 20" fill="none" xmlns="http://www.w3.org/2000/svg">
<path d="M16.1572 9.23888V5.92301C16.1572 2.78616 15.4255 2 12.4832 2H6.59873C3.65648 2 2.9248 2.78616 2.9248 5.92301V14.6875C2.9248 16.758 4.06123 17.2484 5.43895 15.7694C5.92933 15.1857 6.80111 15.1234 7.36932 15.6216C7.45494 15.6994 7.53278 15.785 7.60283 15.8784L8.38899 16.9292" stroke="#B1B1B1" stroke-width="1.5" stroke-linecap="round" stroke-linejoin="round"/>
<path d="M16.8576 14.6087C16.8576 15.9864 15.7445 17.0995 14.3668 17.0995C12.9891 17.0995 11.876 15.9864 11.876 14.6087C11.876 13.231 12.9891 12.1179 14.3668 12.1179C15.7445 12.1179 16.8576 13.231 16.8576 14.6087Z" stroke="#B1B1B1" stroke-width="1.5" stroke-linecap="round" stroke-linejoin="round"/>
<path d="M17.3243 17.5669L16.5459 16.7886" stroke="#B1B1B1" stroke-width="1.5" stroke-linecap="round" stroke-linejoin="round"/>
<path d="M6.42773 5.89233H12.6547" stroke="#B1B1B1" stroke-width="1.5" stroke-linecap="round" stroke-linejoin="round"/>
<path d="M7.20605 9.00635H11.8763" stroke="#B1B1B1" stroke-width="1.5" stroke-linecap="round" stroke-linejoin="round"/>
</svg>
