<svg width="20" height="20" viewBox="0 0 20 20" fill="none" xmlns="http://www.w3.org/2000/svg">
<path d="M7.33831 11.8642C7.33214 12.1033 7.37323 12.3413 7.45921 12.5645C7.5452 12.7877 7.67439 12.9917 7.83938 13.1649C8.00437 13.338 8.20192 13.4769 8.4207 13.5736C8.63948 13.6703 8.87518 13.7228 9.11431 13.7282H11.1223C11.5433 13.7181 11.9431 13.5415 12.2341 13.2371C12.525 12.9326 12.6833 12.5252 12.6743 12.1042C12.7197 11.7619 12.6369 11.415 12.442 11.13C12.2471 10.845 11.9537 10.6421 11.6183 10.5602L8.39431 9.44022C8.05887 9.35837 7.76552 9.15546 7.5706 8.87046C7.37568 8.58547 7.29295 8.2385 7.33831 7.89622C7.32929 7.4752 7.48762 7.0678 7.77856 6.76336C8.06951 6.45891 8.46932 6.28229 8.89031 6.27222H10.8983C11.1374 6.27761 11.3731 6.33015 11.5919 6.42682C11.8107 6.52349 12.0082 6.66239 12.1732 6.83555C12.3382 7.00872 12.4674 7.21275 12.5534 7.43595C12.6394 7.65914 12.6805 7.89711 12.6743 8.13622" stroke="#B1B1B1" stroke-width="1.5" stroke-linecap="round" stroke-linejoin="round"/>
<path d="M10 5.19946V14.7995" stroke="#B1B1B1" stroke-width="1.5" stroke-linecap="round" stroke-linejoin="round"/>
<path d="M18 10C18 11.5822 17.5308 13.129 16.6518 14.4446C15.7727 15.7602 14.5233 16.7855 13.0615 17.391C11.5997 17.9965 9.99113 18.155 8.43928 17.8463C6.88743 17.5376 5.46197 16.7757 4.34315 15.6568C3.22433 14.538 2.4624 13.1126 2.15372 11.5607C1.84504 10.0089 2.00347 8.40034 2.60897 6.93853C3.21447 5.47672 4.23985 4.22729 5.55544 3.34824C6.87103 2.46919 8.41775 2 10 2C12.1217 2 14.1566 2.84285 15.6569 4.34314C17.1571 5.84344 18 7.87827 18 10Z" stroke="#B1B1B1" stroke-width="1.5" stroke-linecap="round" stroke-linejoin="round"/>
</svg>
