<svg width="29" height="29" viewBox="0 0 29 29" fill="none" xmlns="http://www.w3.org/2000/svg">
<circle cx="14.5" cy="14.5" r="14.5" fill="#0F0F0F"/>
<path opacity="0.8" d="M14.5813 15.9649C11.8339 15.9649 9.59863 13.7301 9.59863 10.9827C9.59863 8.23529 11.8339 6 14.5813 6C17.3287 6 19.564 8.23529 19.564 10.9827C19.564 13.7301 17.3287 15.9654 14.5813 15.9654V15.9649ZM14.5813 9.00691C13.4919 9.00691 12.6055 9.89325 12.6055 10.9827C12.6055 12.0721 13.4919 12.9584 14.5813 12.9584C15.6707 12.9584 16.5571 12.0721 16.5571 10.9827C16.5571 9.89325 15.6707 9.00691 14.5813 9.00691Z" fill="white"/>
<path opacity="0.8" d="M14.5813 22.9997C11.8339 22.9997 9.59863 20.7656 9.59863 18.0198V10.9665C9.59863 10.1366 10.2717 9.46387 11.1021 9.46387C11.9325 9.46387 12.6055 10.1366 12.6055 10.9665V18.0198C12.6055 19.1086 13.4919 19.9944 14.5813 19.9944C15.6707 19.9944 16.5571 19.1086 16.5571 18.0198V10.9665C16.5571 10.1366 17.2302 9.46387 18.0605 9.46387C18.8909 9.46387 19.564 10.1366 19.564 10.9665V18.0198C19.564 20.7656 17.3287 22.9997 14.5813 22.9997Z" fill="white"/>
</svg>
